<mxGraphModel dx="2058" dy="1188" grid="1" gridSize="10" guides="1" tooltips="1" connect="1" arrows="1" fold="1" page="1" pageScale="1" pageWidth="1169" pageHeight="827" math="0" shadow="0">
  <root>
    <mxCell id="0" />
    <mxCell id="1" parent="0" />
    <mxCell id="7vTWxpTUgAqM-lZmj-m4-14" value="[Position&#xa;Group&#xa;Department&#xa;University]" style="endArrow=classic;verticalAlign=top;fontSize=14;startArrow=classic;startFill=1;endFill=1;" parent="1" edge="1">
      <mxGeometry x="20" y="720" width="50" height="50" as="geometry">
        <mxPoint x="490" y="750" as="sourcePoint" />
        <mxPoint x="1144.984731883595" y="750" as="targetPoint" />
        <mxPoint x="-1" as="offset" />
      </mxGeometry>
    </mxCell>
    <mxCell id="7vTWxpTUgAqM-lZmj-m4-15" value="[Position&#xa;Group&#xa;Department&#xa;University]" style="endArrow=classic;verticalAlign=top;fontSize=14;startArrow=classic;startFill=1;endFill=1;" parent="1" edge="1">
      <mxGeometry x="20" y="720" width="50" height="50" as="geometry">
        <mxPoint x="180" y="750" as="sourcePoint" />
        <mxPoint x="490" y="750" as="targetPoint" />
        <mxPoint x="1" as="offset" />
      </mxGeometry>
    </mxCell>
    <mxCell id="3Stw6r_B2xiS9IpdGpiu-6" value="&lt;div style=&quot;text-indent: 0px; background-color: rgb(248, 249, 250); text-align: left; font-size: 16px;&quot;&gt;&lt;font style=&quot;font-size: 16px;&quot;&gt;&lt;font style=&quot;font-size: 16px;&quot; face=&quot;helvetica&quot;&gt;[Name]&lt;/font&gt;&lt;br&gt;&lt;/font&gt;&lt;/div&gt;&lt;span style=&quot;color: rgb(0, 0, 0); font-family: helvetica; font-style: normal; font-weight: 400; letter-spacing: normal; text-align: center; text-indent: 0px; text-transform: none; word-spacing: 0px; background-color: rgb(248, 249, 250); font-size: 16px;&quot;&gt;&lt;div style=&quot;text-align: left&quot;&gt;&lt;span&gt;Bibliographic Coupling (Cutoff [x])&lt;/span&gt;&lt;/div&gt;&lt;/span&gt;&lt;span style=&quot;color: rgb(0 , 0 , 0) ; font-family: &amp;quot;helvetica&amp;quot; ; font-style: normal ; font-weight: 400 ; letter-spacing: normal ; text-align: center ; text-indent: 0px ; text-transform: none ; word-spacing: 0px ; background-color: rgb(248 , 249 , 250) ; font-size: 16px&quot;&gt;&lt;div style=&quot;text-align: left&quot;&gt;&lt;span&gt;[Sources] - [Year - Year]&lt;/span&gt;&lt;/div&gt;&lt;/span&gt;" style="text;whiteSpace=wrap;html=1;" parent="1" vertex="1">
      <mxGeometry x="50" y="50" width="280" height="60" as="geometry" />
    </mxCell>
    <mxCell id="7voxY5Re2SbjZICv-ZUU-22" value="" style="group" parent="1" vertex="1" connectable="0">
      <mxGeometry x="30" y="720" width="1120" height="20" as="geometry" />
    </mxCell>
    <mxCell id="7vTWxpTUgAqM-lZmj-m4-6" value="2016" style="shape=partialRectangle;whiteSpace=wrap;bottom=0;right=0;fillColor=none;container=0;" parent="7voxY5Re2SbjZICv-ZUU-22" vertex="1">
      <mxGeometry x="763.4931239655041" width="50.92908692233529" height="20" as="geometry" />
    </mxCell>
    <mxCell id="7vTWxpTUgAqM-lZmj-m4-7" value="2017" style="shape=partialRectangle;whiteSpace=wrap;bottom=0;right=0;fillColor=none;container=0;" parent="7voxY5Re2SbjZICv-ZUU-22" vertex="1">
      <mxGeometry x="814.4222108878392" width="50.92908692233529" height="20" as="geometry" />
    </mxCell>
    <mxCell id="7vTWxpTUgAqM-lZmj-m4-8" value="2018" style="shape=partialRectangle;whiteSpace=wrap;bottom=0;right=0;fillColor=none;container=0;" parent="7voxY5Re2SbjZICv-ZUU-22" vertex="1">
      <mxGeometry x="865.3512978101744" width="50.92908692233529" height="20" as="geometry" />
    </mxCell>
    <mxCell id="7vTWxpTUgAqM-lZmj-m4-9" value="2019" style="shape=partialRectangle;whiteSpace=wrap;bottom=0;right=0;fillColor=none;container=0;" parent="7voxY5Re2SbjZICv-ZUU-22" vertex="1">
      <mxGeometry x="916.2803847325093" width="50.92908692233529" height="20" as="geometry" />
    </mxCell>
    <mxCell id="7vTWxpTUgAqM-lZmj-m4-10" value="2020" style="shape=partialRectangle;whiteSpace=wrap;bottom=0;right=0;fillColor=none;container=0;" parent="7voxY5Re2SbjZICv-ZUU-22" vertex="1">
      <mxGeometry x="967.2094716548447" width="50.92908692233529" height="20" as="geometry" />
    </mxCell>
    <mxCell id="7vTWxpTUgAqM-lZmj-m4-11" value="2021" style="shape=partialRectangle;whiteSpace=wrap;bottom=0;right=0;fillColor=none;container=0;" parent="7voxY5Re2SbjZICv-ZUU-22" vertex="1">
      <mxGeometry x="1018.1399106768329" width="50.92908692233529" height="20" as="geometry" />
    </mxCell>
    <mxCell id="3Stw6r_B2xiS9IpdGpiu-2" value="2022" style="shape=partialRectangle;whiteSpace=wrap;bottom=0;right=0;fillColor=none;container=0;" parent="7voxY5Re2SbjZICv-ZUU-22" vertex="1">
      <mxGeometry x="1069.0709130776647" width="50.92908692233529" height="20" as="geometry" />
    </mxCell>
    <mxCell id="7voxY5Re2SbjZICv-ZUU-4" value="2008" style="shape=partialRectangle;whiteSpace=wrap;bottom=0;right=0;fillColor=none;container=0;" parent="7voxY5Re2SbjZICv-ZUU-22" vertex="1">
      <mxGeometry x="356.5073025027158" width="50.92908692233529" height="20" as="geometry" />
    </mxCell>
    <mxCell id="7voxY5Re2SbjZICv-ZUU-5" value="2009" style="shape=partialRectangle;whiteSpace=wrap;bottom=0;right=0;fillColor=none;container=0;" parent="7voxY5Re2SbjZICv-ZUU-22" vertex="1">
      <mxGeometry x="407.436389425051" width="50.92908692233529" height="20" as="geometry" />
    </mxCell>
    <mxCell id="7voxY5Re2SbjZICv-ZUU-6" value="2010" style="shape=partialRectangle;whiteSpace=wrap;bottom=0;right=0;fillColor=none;container=0;" parent="7voxY5Re2SbjZICv-ZUU-22" vertex="1">
      <mxGeometry x="458.3654763473863" width="50.92908692233529" height="20" as="geometry" />
    </mxCell>
    <mxCell id="7voxY5Re2SbjZICv-ZUU-7" value="2011" style="shape=partialRectangle;whiteSpace=wrap;bottom=0;right=0;fillColor=none;container=0;" parent="7voxY5Re2SbjZICv-ZUU-22" vertex="1">
      <mxGeometry x="509.29456326972144" width="50.92908692233529" height="20" as="geometry" />
    </mxCell>
    <mxCell id="7voxY5Re2SbjZICv-ZUU-8" value="2012" style="shape=partialRectangle;whiteSpace=wrap;bottom=0;right=0;fillColor=none;container=0;" parent="7voxY5Re2SbjZICv-ZUU-22" vertex="1">
      <mxGeometry x="560.2236501920564" width="50.92908692233529" height="20" as="geometry" />
    </mxCell>
    <mxCell id="7voxY5Re2SbjZICv-ZUU-9" value="2013" style="shape=partialRectangle;whiteSpace=wrap;bottom=0;right=0;fillColor=none;container=0;" parent="7voxY5Re2SbjZICv-ZUU-22" vertex="1">
      <mxGeometry x="611.1540892140446" width="50.92908692233529" height="20" as="geometry" />
    </mxCell>
    <mxCell id="7voxY5Re2SbjZICv-ZUU-10" value="2014" style="shape=partialRectangle;whiteSpace=wrap;bottom=0;right=0;fillColor=none;container=0;" parent="7voxY5Re2SbjZICv-ZUU-22" vertex="1">
      <mxGeometry x="662.0850916148764" width="50.92908692233529" height="20" as="geometry" />
    </mxCell>
    <mxCell id="7voxY5Re2SbjZICv-ZUU-11" value="2015" style="shape=partialRectangle;whiteSpace=wrap;bottom=0;right=0;fillColor=none;container=0;" parent="7voxY5Re2SbjZICv-ZUU-22" vertex="1">
      <mxGeometry x="713.0141785372117" width="50.478945428292256" height="20" as="geometry" />
    </mxCell>
    <mxCell id="7voxY5Re2SbjZICv-ZUU-12" style="edgeStyle=orthogonalEdgeStyle;rounded=0;orthogonalLoop=1;jettySize=auto;html=1;exitX=1;exitY=1;exitDx=0;exitDy=0;entryX=1;entryY=0;entryDx=0;entryDy=0;endArrow=none;endFill=0;" parent="7voxY5Re2SbjZICv-ZUU-22" source="7voxY5Re2SbjZICv-ZUU-11" target="7voxY5Re2SbjZICv-ZUU-11" edge="1">
      <mxGeometry relative="1" as="geometry" />
    </mxCell>
    <mxCell id="7voxY5Re2SbjZICv-ZUU-14" value="2001" style="shape=partialRectangle;whiteSpace=wrap;bottom=0;right=0;fillColor=none;container=0;" parent="7voxY5Re2SbjZICv-ZUU-22" vertex="1">
      <mxGeometry width="50.92908692233529" height="20" as="geometry" />
    </mxCell>
    <mxCell id="7voxY5Re2SbjZICv-ZUU-15" value="2002" style="shape=partialRectangle;whiteSpace=wrap;bottom=0;right=0;fillColor=none;container=0;" parent="7voxY5Re2SbjZICv-ZUU-22" vertex="1">
      <mxGeometry x="50.92908692233522" width="50.92908692233529" height="20" as="geometry" />
    </mxCell>
    <mxCell id="7voxY5Re2SbjZICv-ZUU-16" value="2003" style="shape=partialRectangle;whiteSpace=wrap;bottom=0;right=0;fillColor=none;container=0;" parent="7voxY5Re2SbjZICv-ZUU-22" vertex="1">
      <mxGeometry x="101.85817384467056" width="50.92908692233529" height="20" as="geometry" />
    </mxCell>
    <mxCell id="7voxY5Re2SbjZICv-ZUU-17" value="2004" style="shape=partialRectangle;whiteSpace=wrap;bottom=0;right=0;fillColor=none;container=0;" parent="7voxY5Re2SbjZICv-ZUU-22" vertex="1">
      <mxGeometry x="152.7872607670056" width="50.92908692233529" height="20" as="geometry" />
    </mxCell>
    <mxCell id="7voxY5Re2SbjZICv-ZUU-18" value="2005" style="shape=partialRectangle;whiteSpace=wrap;bottom=0;right=0;fillColor=none;container=0;" parent="7voxY5Re2SbjZICv-ZUU-22" vertex="1">
      <mxGeometry x="203.7163476893407" width="50.92908692233529" height="20" as="geometry" />
    </mxCell>
    <mxCell id="7voxY5Re2SbjZICv-ZUU-19" value="2006" style="shape=partialRectangle;whiteSpace=wrap;bottom=0;right=0;fillColor=none;container=0;" parent="7voxY5Re2SbjZICv-ZUU-22" vertex="1">
      <mxGeometry x="254.6467867113288" width="50.92908692233529" height="20" as="geometry" />
    </mxCell>
    <mxCell id="7voxY5Re2SbjZICv-ZUU-20" value="2007" style="shape=partialRectangle;whiteSpace=wrap;bottom=0;right=0;fillColor=none;container=0;" parent="7voxY5Re2SbjZICv-ZUU-22" vertex="1">
      <mxGeometry x="305.5777891121607" width="50.92908692233529" height="20" as="geometry" />
    </mxCell>
    <mxCell id="7voxY5Re2SbjZICv-ZUU-24" value="[Position&#xa;Group&#xa;Department&#xa;University]" style="endArrow=classic;verticalAlign=top;fontSize=14;startArrow=classic;startFill=1;endFill=1;" parent="1" edge="1">
      <mxGeometry x="20" y="720" width="50" height="50" as="geometry">
        <mxPoint x="10" y="750" as="sourcePoint" />
        <mxPoint x="180" y="750" as="targetPoint" />
        <mxPoint x="1" as="offset" />
      </mxGeometry>
    </mxCell>
    <mxCell id="7voxY5Re2SbjZICv-ZUU-25" value="Topics" parent="0" />
  </root>
</mxGraphModel>
